<svg width="57" height="57" viewBox="0 0 57 57" fill="none" xmlns="http://www.w3.org/2000/svg">
<path d="M28.5 0C44.244 0 57 12.756 57 28.5C57 44.244 44.244 57 28.5 57C12.756 57 0 44.244 0 28.5C0 12.756 12.756 0 28.5 0ZM41.5893 26.5464L26.0177 10.9748C24.9375 9.89456 23.1907 9.89456 22.122 10.9748L20.1683 12.9284C19.0881 14.0087 19.0881 15.7554 20.1683 16.8242L31.8442 28.5L20.1683 40.1758C19.0881 41.256 19.0881 43.0028 20.1683 44.0716L22.122 46.0252C23.2022 47.1054 24.949 47.1054 26.0177 46.0252L41.5893 30.4536C42.6696 29.3734 42.6696 27.6266 41.5893 26.5464Z" fill="#FF0000"/>
</svg>
