<svg width="123" height="57" viewBox="0 0 123 57" fill="none" xmlns="http://www.w3.org/2000/svg">
<path fill-rule="evenodd" clip-rule="evenodd" d="M98.4151 7.99376L85.9215 23.8258L83.6635 13.7838L93.3403 1.52094C93.4757 1.37314 93.6006 1.2158 93.7465 1.07848C94.187 0.666544 94.7201 0.357299 95.2932 0.179649C95.8052 0.0205944 95.9473 0.0400498 96.4775 0H113.165C113.669 0.0360449 113.803 0.018499 114.291 0.161916C115.569 0.537144 116.624 1.58769 117 2.87119C117.143 3.35942 117.126 3.49292 117.162 3.99735V37.5439H119.004L119.572 37.5839C120.066 37.6917 120.2 37.6936 120.664 37.9043C121.703 38.3792 122.517 39.3175 122.839 40.4141C122.982 40.9023 122.964 41.0358 123 41.5403V52.04C122.964 52.5435 122.982 52.677 122.839 53.1652C122.462 54.4468 121.408 55.4995 120.13 55.8743C119.642 56.0183 119.507 56.0002 119.004 56.0364H98.7603C98.2559 56.0002 98.1224 56.0183 97.6342 55.8743C96.3554 55.4986 95.3017 54.4487 94.9251 53.1652C94.7811 52.677 94.7992 52.5435 94.763 52.04V42.2736L102.757 32.2802V48.0426H115.006V45.5367H113.165C112.661 45.5014 112.528 45.5186 112.04 45.3755C110.761 44.9998 109.707 43.949 109.331 42.6664C109.187 42.1782 109.205 42.0437 109.169 41.5403V7.99376H98.4151Z" fill="#0052FF"/>
<path fill-rule="evenodd" clip-rule="evenodd" d="M102.757 10.6113V23.4092L86.257 44.0367L85.8508 44.4735C85.6953 44.5974 85.5485 44.7328 85.3845 44.8444C84.8896 45.181 84.3193 45.4042 83.731 45.4928C83.5346 45.5224 83.3343 45.5224 83.136 45.5367H66.1592C65.6213 45.4957 65.4774 45.5157 64.9583 45.3527C63.9858 45.0456 63.1474 44.3581 62.6567 43.4656C62.3945 42.9888 62.3859 42.8438 62.2401 42.3241L61.9553 40.9005L67.9658 30.1938L69.4359 37.5439H81.2155L102.757 10.6113Z" fill="#0052FF"/>
<path fill-rule="evenodd" clip-rule="evenodd" d="M30.1681 45.537L28.424 48.0428H42.3427L63.4888 10.3757L66.0604 22.1227L48.1679 53.9967L47.8338 54.4994C47.4736 54.8948 47.4016 55.019 46.9571 55.3255C46.4591 55.6718 45.8813 55.9002 45.2851 55.9906C45.0874 56.0212 44.8852 56.0212 44.6829 56.0366H20.7735C19.998 55.9799 19.2287 55.8067 18.5804 55.3806C16.9712 54.3232 16.3138 52.0259 17.198 50.2558C17.2839 50.0826 17.3942 49.9232 17.4923 49.7561L24.7995 39.2566C25.1459 38.826 25.5213 38.4199 25.9903 38.1333C26.3029 37.9417 26.6401 37.793 26.9941 37.6934C27.1719 37.6429 27.3006 37.6137 27.4187 37.5953H40.8055L37.3802 43.5371C37.2683 43.701 37.1672 43.8742 37.0431 44.0305C36.545 44.6558 35.86 45.1233 35.0967 45.3593C34.5864 45.5171 34.4454 45.4972 33.9167 45.537H30.1681ZM43.3833 33.1264H2.22041C1.31774 33.0161 0.456443 32.5441 0.13001 31.6843C-0.320561 30.4966 0.448784 29.0253 1.68555 28.7203C1.85873 28.6774 2.04111 28.6774 2.22041 28.656H36.7335L38.8239 25.03H48.0514L43.3833 33.1264ZM57.8735 7.99394H15.6333C14.7322 7.88436 13.8709 7.41264 13.5429 6.5515C13.0939 5.36378 13.8617 3.89375 15.0985 3.58893C15.2732 3.54586 15.4555 3.54555 15.6333 3.52395H51.2238L52.1019 2.00029L52.4391 1.50634C52.7992 1.11815 52.8713 0.995998 53.3126 0.695158C53.8046 0.358916 54.3762 0.134091 54.9693 0.0445903C55.1655 0.0148588 55.3663 0.0148658 55.5655 0H71.6527C71.852 0.0148658 72.0512 0.0298836 72.2504 0.0447493C72.7669 0.163062 72.9094 0.165055 73.3906 0.397543C74.1124 0.745739 74.7209 1.31262 75.1193 2.00702C75.386 2.47077 75.3983 2.61269 75.5531 3.11997L81.4534 29.3625L79.1561 32.2467H73.9086L68.4543 7.99348H57.8735V7.99394ZM50.6276 20.5595H9.2441C8.17284 20.4292 7.16289 19.7227 7.02496 18.5948C6.89316 17.5112 7.65331 16.4155 8.70924 16.1549C8.88395 16.112 9.06479 16.112 9.2441 16.0906H43.9779L46.0698 12.4646H55.2973L50.6276 20.5595Z" fill="#FF0000"/>
</svg>
