<?xml version="1.0" encoding="UTF-8" standalone="no"?><!DOCTYPE svg PUBLIC "-//W3C//DTD SVG 1.1//EN" "http://www.w3.org/Graphics/SVG/1.1/DTD/svg11.dtd"><svg width="100%" height="100%" viewBox="0 0 155 113" version="1.1" xmlns="http://www.w3.org/2000/svg" xmlns:xlink="http://www.w3.org/1999/xlink" xml:space="preserve" xmlns:serif="http://www.serif.com/" style="fill-rule:evenodd;clip-rule:evenodd;stroke-linejoin:round;stroke-miterlimit:2;"><g><path d="M114.028,8.784l-13.76,17.398l-2.487,-11.035l10.658,-13.476c0.149,-0.162 0.286,-0.335 0.447,-0.486c0.485,-0.453 1.072,-0.792 1.704,-0.988c0.564,-0.174 0.72,-0.153 1.304,-0.197l18.379,-0c0.556,0.04 0.703,0.02 1.24,0.178c1.408,0.412 2.569,1.567 2.984,2.977c0.158,0.537 0.139,0.683 0.179,1.238l-0,36.863l2.028,0l0.625,0.044c0.544,0.119 0.693,0.121 1.203,0.352c1.145,0.522 2.041,1.553 2.396,2.758c0.157,0.537 0.137,0.683 0.177,1.238l0,11.538c-0.04,0.553 -0.02,0.7 -0.177,1.236c-0.415,1.408 -1.577,2.565 -2.984,2.977c-0.538,0.158 -0.686,0.138 -1.24,0.178l-22.296,0c-0.555,-0.04 -0.702,-0.02 -1.24,-0.178c-1.408,-0.413 -2.569,-1.567 -2.984,-2.977c-0.158,-0.536 -0.138,-0.683 -0.178,-1.236l0,-10.733l8.804,-10.981l0,17.321l13.491,0l0,-2.754l-2.028,0c-0.555,-0.039 -0.702,-0.02 -1.239,-0.177c-1.409,-0.413 -2.569,-1.567 -2.984,-2.977c-0.159,-0.536 -0.139,-0.684 -0.179,-1.237l0,-36.864l-11.843,0Z" style="fill:#0052ff;"/><path d="M118.81,11.661l0,14.063l-18.172,22.667l-0.448,0.48c-0.171,0.136 -0.333,0.285 -0.513,0.408c-0.545,0.369 -1.173,0.615 -1.821,0.712c-0.217,0.033 -0.437,0.033 -0.656,0.048l-18.697,0c-0.593,-0.045 -0.751,-0.023 -1.323,-0.202c-1.071,-0.337 -1.995,-1.093 -2.535,-2.074c-0.289,-0.524 -0.298,-0.683 -0.459,-1.254l-0.313,-1.564l6.619,-11.766l1.619,8.077l12.974,0l23.725,-29.595Z" style="fill:#0052ff;"/><path d="M38.861,50.04l-1.921,2.753l15.33,0l23.29,-41.391l2.832,12.908l-19.706,35.026l-0.368,0.552c-0.397,0.435 -0.476,0.571 -0.966,0.908c-0.548,0.38 -1.185,0.631 -1.841,0.731c-0.218,0.033 -0.441,0.033 -0.664,0.05l-26.333,0c-0.854,-0.062 -1.701,-0.252 -2.415,-0.721c-1.772,-1.162 -2.496,-3.686 -1.523,-5.631c0.095,-0.19 0.217,-0.366 0.325,-0.549l8.047,-11.538c0.382,-0.473 0.795,-0.919 1.312,-1.234c0.344,-0.211 0.716,-0.374 1.106,-0.484c0.195,-0.055 0.337,-0.087 0.467,-0.107l14.744,-0l-3.773,6.529c-0.123,0.18 -0.234,0.37 -0.371,0.542c-0.548,0.687 -1.303,1.201 -2.143,1.46c-0.563,0.174 -0.718,0.152 -1.3,0.196l-4.129,-0Zm14.555,-13.638l-45.335,-0c-0.995,-0.121 -1.943,-0.64 -2.303,-1.585c-0.496,-1.305 0.351,-2.922 1.713,-3.257c0.191,-0.047 0.392,-0.047 0.59,-0.071l38.011,0l2.303,-3.984l10.162,-0l-5.141,8.897Zm15.959,-27.618l-46.522,0c-0.992,-0.12 -1.941,-0.638 -2.302,-1.585c-0.495,-1.305 0.351,-2.92 1.713,-3.255c0.192,-0.048 0.393,-0.048 0.589,-0.072l39.198,0l0.967,-1.674l0.372,-0.543c0.396,-0.426 0.476,-0.561 0.962,-0.891c0.542,-0.37 1.171,-0.617 1.825,-0.715c0.216,-0.033 0.437,-0.033 0.656,-0.049l17.718,0c0.219,0.016 0.439,0.033 0.658,0.049c0.569,0.13 0.726,0.132 1.256,0.388c0.795,0.382 1.465,1.005 1.904,1.768c0.294,0.51 0.307,0.666 0.478,1.223l6.498,28.838l-2.53,3.169l-5.779,0l-6.008,-26.651l-11.653,-0l0,0Zm-7.98,13.808l-45.579,0c-1.18,-0.143 -2.292,-0.919 -2.444,-2.159c-0.145,-1.19 0.692,-2.394 1.855,-2.681c0.193,-0.047 0.392,-0.047 0.589,-0.07l38.255,-0l2.304,-3.985l10.163,0l-5.143,8.895Z" style="fill:#f00;"/><path d="M20.341,71.011l-13.841,24.519l5.269,-0l5.544,-10.282l1.73,10.729l9.564,-10.729l-1.963,10.282l5.269,-0l4.061,-24.519l-13.051,14.34l-2.582,-14.34Z" style="fill:#f00;fill-rule:nonzero;"/><path d="M49.179,91.025l0.215,4.505l5.474,-0l-1.861,-24.519l-19.762,24.519l5.475,-0l3.572,-4.505l6.887,-0Zm-0.074,-4.608l-3.375,0l3.172,-4.161l0.203,4.161Z" style="fill:#f00;fill-rule:nonzero;"/><path d="M80.613,80.331c1.782,-4.883 -0.756,-8.873 -5.679,-8.873l-8.917,0.001l-8.785,24.071l5.164,0l2.372,-6.499l3.167,-0c2.617,-0 3.573,2.097 2.644,4.642l-0.678,1.857l5.164,0l0.678,-1.857c0.916,-2.51 1.21,-4.917 -0.792,-6.981c2.258,-1.375 4.482,-3.129 5.662,-6.361Zm-5.268,-0c-0.816,2.235 -3.352,4.092 -5.625,4.092l-3.27,-0l2.999,-8.219l3.271,-0c2.272,-0 3.453,1.857 2.625,4.127Z" style="fill:#f00;fill-rule:nonzero;"/><path d="M92.778,71.459l-5.161,-0.001l-8.774,24.072l5.161,0l8.774,-24.072Z" style="fill:#f00;fill-rule:nonzero;"/><path d="M91.531,83.528c-2.511,6.878 0.965,12.449 7.817,12.449c6.852,-0 14.361,-5.571 16.872,-12.449c2.523,-6.912 -0.953,-12.483 -7.805,-12.483c-6.852,0 -14.361,5.571 -16.884,12.483Zm5.406,0c1.481,-4.058 5.81,-7.428 9.632,-7.428c3.788,0 5.726,3.37 4.244,7.428c-1.481,4.058 -5.832,7.394 -9.62,7.394c-3.822,-0 -5.738,-3.336 -4.256,-7.394Z" style="fill:#f00;fill-rule:nonzero;"/><path d="M114.998,95.53l14.251,0l1.757,-4.814l-9.088,-0l7.026,-19.258l-5.163,0l-8.783,24.072Z" style="fill:#f00;fill-rule:nonzero;"/><path d="M140.632,71.459l-5.715,-0.001l2.328,13.996l-3.677,10.076l5.164,0l3.678,-10.076l12.545,-13.996l-5.715,0l-7.517,8.804l-1.091,-8.804Z" style="fill:#f00;fill-rule:nonzero;"/><g transform="matrix(1,0,-0.415958,1,31.4993,0)"><g transform="matrix(15.4449,0,0,15.4449,167.035,112.811)"></g><text x="14.328px" y="112.811px" style="font-family:'BrandingSF-Light', 'Branding SF';font-weight:300;font-size:15.445px;fill:#0052ff;">SER<tspan x="39.2px " y="112.811px ">V</tspan>ICIOS <tspan x="87.872px " y="112.811px ">T</tspan>URIS<tspan x="126.778px " y="112.811px ">T</tspan>IC<tspan x="147.796px " y="112.811px ">O</tspan>S</text></g></g></svg>