<svg width="345" height="59" viewBox="0 0 345 59" fill="none" xmlns="http://www.w3.org/2000/svg">
<path fill-rule="evenodd" clip-rule="evenodd" d="M318.473 8.32628L305.462 24.8141L303.111 14.3561L313.188 1.58537C313.329 1.43145 313.459 1.26759 313.611 1.12459C314.07 0.695586 314.625 0.373533 315.222 0.188526C315.755 0.0228831 315.903 0.0431444 316.455 0.00143576H333.834C334.359 0.0389735 334.498 0.020701 335.007 0.170057C336.337 0.560827 337.436 1.65488 337.828 2.99154C337.977 3.49999 337.959 3.63902 337.997 4.16435V39.1003H339.914L340.506 39.142C341.021 39.2542 341.161 39.2562 341.643 39.4756C342.726 39.9702 343.573 40.9474 343.909 42.0894C344.058 42.5978 344.039 42.7369 344.076 43.2622V54.1968C344.039 54.7211 344.058 54.8602 343.909 55.3686C343.516 56.7033 342.418 57.7996 341.087 58.1899C340.579 58.3399 340.439 58.321 339.914 58.3587H318.833C318.307 58.321 318.168 58.3399 317.66 58.1899C316.328 57.7986 315.231 56.7053 314.839 55.3686C314.689 54.8602 314.708 54.7211 314.67 54.1968V44.0259L322.995 33.6186V50.0339H335.752V47.4241H333.834C333.31 47.3874 333.171 47.4053 332.662 47.2563C331.33 46.865 330.233 45.7707 329.841 44.435C329.691 43.9266 329.71 43.7865 329.672 43.2622V8.32628H318.473Z" fill="#0052FF"/>
<path fill-rule="evenodd" clip-rule="evenodd" d="M322.995 11.0522V24.3801L305.812 45.862L305.389 46.3168C305.227 46.4459 305.074 46.587 304.903 46.7031C304.388 47.0537 303.794 47.2861 303.181 47.3784C302.977 47.4092 302.768 47.4092 302.561 47.4241H284.882C284.321 47.3814 284.172 47.4023 283.631 47.2324C282.618 46.9127 281.745 46.1967 281.234 45.2672C280.961 44.7706 280.952 44.6197 280.8 44.0785L280.504 42.5958L286.763 31.4457L288.294 39.1003H300.561L322.995 11.0522Z" fill="#0052FF"/>
<path fill-rule="evenodd" clip-rule="evenodd" d="M247.4 47.4245L245.583 50.034H260.078L282.1 10.8069L284.779 23.0404L266.145 56.2346L265.797 56.7581C265.422 57.1699 265.347 57.2991 264.884 57.6183C264.365 57.979 263.764 58.2169 263.143 58.311C262.937 58.3429 262.726 58.3429 262.516 58.3589H237.616C236.808 58.2999 236.007 58.1195 235.332 57.6758C233.656 56.5745 232.972 54.1821 233.892 52.3387C233.982 52.1583 234.097 51.9923 234.199 51.8184L241.809 40.884C242.169 40.4355 242.56 40.0126 243.049 39.7141C243.374 39.5146 243.726 39.3598 244.094 39.256C244.279 39.2034 244.413 39.1731 244.536 39.1539H258.478L254.911 45.3417C254.794 45.5125 254.689 45.6928 254.559 45.8556C254.041 46.5068 253.327 46.9936 252.532 47.2394C252.001 47.4038 251.854 47.383 251.304 47.4245H247.4ZM261.162 34.4999H218.294C217.354 34.385 216.457 33.8934 216.118 32.998C215.648 31.7611 216.449 30.2289 217.737 29.9113C217.918 29.8666 218.108 29.8666 218.294 29.8443H254.237L256.414 26.0681H266.024L261.162 34.4999ZM276.253 8.32648H232.263C231.324 8.21237 230.427 7.72111 230.086 6.8243C229.618 5.58738 230.418 4.05648 231.706 3.73903C231.888 3.69418 232.078 3.69386 232.263 3.67135H269.327L270.242 2.08459L270.593 1.57019C270.968 1.16591 271.043 1.0387 271.503 0.725405C272.015 0.375236 272.61 0.1411 273.228 0.047892C273.432 0.016929 273.642 0.0169363 273.849 0.00145483H290.603C290.81 0.0169363 291.017 0.0325761 291.225 0.0480576C291.763 0.171271 291.911 0.173346 292.412 0.415463C293.164 0.778081 293.798 1.36844 294.213 2.0916C294.49 2.57456 294.503 2.72236 294.664 3.25064L300.809 30.58L298.417 33.5838H292.952L287.272 8.32601H276.253V8.32648ZM268.707 21.4125H225.609C224.493 21.2768 223.442 20.541 223.298 19.3664C223.161 18.238 223.952 17.0968 225.052 16.8255C225.234 16.7808 225.422 16.7808 225.609 16.7585H261.781L263.96 12.9823H273.57L268.707 21.4125Z" fill="#FF0000"/>
<path d="M33.3235 -1.52588e-05L14.1105 34.1579H21.4403L29.1357 19.8336L31.562 34.7807L44.8493 19.8336L42.1363 34.1579H49.4661L55.0734 -1.52588e-05L36.9403 19.9773L33.3235 -1.52588e-05Z" fill="#FF0000"/>
<path d="M73.4482 27.882L73.755 34.1579H81.3723L78.7396 -1.52588e-05L51.2865 34.1579H58.9038L63.8667 27.882H73.4482ZM73.3372 21.4625H68.6423L73.0479 15.6657L73.3372 21.4625Z" fill="#FF0000"/>
<path d="M117.137 12.983C119.609 6.18013 116.07 0.622879 109.22 0.622879H96.8116L84.6278 34.158H91.8139L95.1035 25.1035H99.511C103.152 25.1035 104.486 28.0259 103.198 31.571L102.258 34.158H109.444L110.384 31.571C111.654 28.0738 112.058 24.7203 109.27 21.8458C112.409 19.9295 115.501 17.4863 117.137 12.983ZM109.807 12.983C108.676 16.0969 105.149 18.6839 101.987 18.6839H97.4359L101.596 7.23409H106.147C109.309 7.23409 110.956 9.82108 109.807 12.983Z" fill="#FF0000"/>
<path d="M134.037 0.622879H126.851L114.667 34.158H121.853L134.037 0.622879Z" fill="#FF0000"/>
<path d="M132.287 17.4383C128.806 27.0197 133.651 34.7807 143.185 34.7807C152.719 34.7807 163.155 27.0197 166.637 17.4383C170.135 7.8089 165.29 0.0479126 155.756 0.0479126C146.222 0.0479126 135.786 7.8089 132.287 17.4383ZM139.808 17.4383C141.862 11.7852 147.88 7.09029 153.197 7.09029C158.467 7.09029 161.169 11.7852 159.115 17.4383C157.061 23.0913 151.013 27.7383 145.744 27.7383C140.426 27.7383 137.755 23.0913 139.808 17.4383Z" fill="#FF0000"/>
<path d="M164.923 34.158H184.756L187.193 27.451H174.545L184.293 0.622879H177.106L164.923 34.158Z" fill="#FF0000"/>
<path d="M200.534 0.622879H192.581L195.845 20.1212L190.745 34.158H197.931L203.031 20.1212L220.463 0.622879H212.51L202.066 12.8872L200.534 0.622879Z" fill="#FF0000"/>
<path d="M19.4253 42.4367H8.36298L7.77487 43.5564H12.7014L5.05601 58.1121H6.26526L13.9107 43.5564H18.8372L19.4253 42.4367Z" fill="#0052FF"/>
<path d="M25.4559 58.1121H26.8219L26.3835 51.5284C28.6588 50.991 31.0554 49.1995 32.1728 47.0721C33.5137 44.5193 32.5249 42.4367 29.9721 42.4367H23.7915L15.558 58.1121H16.7448L20.1206 51.6852H25.0695L25.4559 58.1121ZM24.3902 43.5564H29.384C31.2874 43.5564 32.0092 45.1239 30.9859 47.0721C29.9744 48.998 27.6059 50.5655 25.7024 50.5655H20.7087L24.3902 43.5564Z" fill="#0052FF"/>
<path d="M41.7367 58.1121H42.9908L45.1557 42.4367H43.9016L29.5771 58.1121H30.8311L34.4475 54.1261H42.3076L41.7367 58.1121ZM35.4835 53.0064L43.7641 43.8923L42.4703 53.0064H35.4835Z" fill="#0052FF"/>
<path d="M50.4702 58.1121H51.7242L65.8024 42.4367H64.526L51.9088 56.567L54.1578 42.4367H52.859L50.4702 58.1121Z" fill="#0052FF"/>
<path d="M63.5093 56.9924L66.7792 50.7671H73.9451L74.5332 49.6474H67.3673L70.5666 43.5564H78.2924L78.8805 42.4367H69.9679L61.7344 58.1121H70.7589L71.347 56.9924H63.5093Z" fill="#0052FF"/>
<path d="M77.3486 56.9924L84.994 42.4367H83.8072L75.5737 58.1121H84.1504L84.7385 56.9924H77.3486Z" fill="#0052FF"/>
<path d="M108.737 57.6867L107.775 55.4249C108.875 54.4396 109.867 53.2752 110.716 52.0435L109.981 51.4389C109.177 52.6705 108.288 53.723 107.405 54.5516L105.195 49.4235C104.749 48.4382 104.481 47.5424 105.151 46.266C106.057 44.5417 108.081 43.3325 109.939 43.3325C111.529 43.3325 112.346 44.2506 112.04 45.7286L113.331 45.1463C113.635 43.2877 112.487 42.1904 110.517 42.1904C108.188 42.1904 105.271 43.7355 103.919 46.3108C103.225 47.632 103.28 48.5501 103.561 49.3787C101.053 50.2744 99.0723 51.9987 98.049 53.947C96.6258 56.6566 97.7472 58.3585 100.838 58.3585C102.92 58.3585 104.865 57.5971 106.553 56.3878L107.367 58.2913L108.737 57.6867ZM101.393 57.2164C99.0413 57.2164 98.1879 55.9848 99.27 53.9246C100.023 52.4914 101.572 50.991 103.931 50.252L106.194 55.5369C104.62 56.6566 102.983 57.2164 101.393 57.2164Z" fill="#0052FF"/>
<path d="M138.715 42.4367H127.653L127.064 43.5564H131.991L124.346 58.1121H125.555L133.2 43.5564H138.127L138.715 42.4367Z" fill="#0052FF"/>
<path d="M141.012 58.3585C145.536 58.3585 150.99 54.7531 153.342 50.2744C155.695 45.7957 154.028 42.1904 149.504 42.1904C144.981 42.1904 139.527 45.7957 137.174 50.2744C134.822 54.7531 136.489 58.3585 141.012 58.3585ZM141.612 57.2164C137.738 57.2164 136.338 54.1261 138.361 50.2744C140.384 46.4228 145.03 43.3325 148.905 43.3325C152.779 43.3325 154.179 46.4228 152.155 50.2744C150.132 54.1261 145.486 57.2164 141.612 57.2164Z" fill="#0052FF"/>
<path d="M159.398 58.3584C162.846 58.3584 166.294 56.1863 168.034 52.8721L173.516 42.4367H172.329L166.848 52.8721C165.507 55.4249 162.976 57.2164 159.997 57.2164C157.041 57.2164 156.392 55.4249 157.733 52.8721L163.215 42.4367H162.028L156.547 52.8721C154.806 56.1863 155.949 58.3584 159.398 58.3584Z" fill="#0052FF"/>
<path d="M180.755 58.1121H182.121L181.683 51.5284C183.958 50.991 186.355 49.1995 187.472 47.0721C188.813 44.5193 187.824 42.4367 185.272 42.4367H179.091L170.857 58.1121H172.044L175.42 51.6852H180.369L180.755 58.1121ZM179.69 43.5564H184.683C186.587 43.5564 187.309 45.1239 186.285 47.0721C185.274 48.998 182.905 50.5655 181.002 50.5655H176.008L179.69 43.5564Z" fill="#0052FF"/>
<path d="M190.927 58.3585C194.04 58.3585 196.971 56.6566 198.336 54.0589C199.759 51.3493 197.799 50.476 195.505 49.5578C193.654 48.8189 192.369 48.2366 193.357 46.3556C194.275 44.6089 196.311 43.3325 198.483 43.3325C200.723 43.3325 201.25 44.6313 201.091 46.0421L202.393 45.4822C202.584 43.6684 201.659 42.1904 199.083 42.1904C196.419 42.1904 193.477 43.8251 192.125 46.4004C190.69 49.1324 192.653 49.8714 194.826 50.7223C196.822 51.4837 198.103 52.2003 197.115 54.0813C196.174 55.8728 194.147 57.2164 191.527 57.2164C188.952 57.2164 188.032 55.94 188.483 54.0589L187.135 54.6636C186.687 56.8805 187.993 58.3585 190.927 58.3585Z" fill="#0052FF"/>
</svg>
