<?xml version="1.0" encoding="UTF-8" standalone="no"?><!DOCTYPE svg PUBLIC "-//W3C//DTD SVG 1.1//EN" "http://www.w3.org/Graphics/SVG/1.1/DTD/svg11.dtd"><svg width="100%" height="100%" viewBox="0 0 345 59" version="1.1" xmlns="http://www.w3.org/2000/svg" xmlns:xlink="http://www.w3.org/1999/xlink" xml:space="preserve" xmlns:serif="http://www.serif.com/" style="fill-rule:evenodd;clip-rule:evenodd;stroke-linejoin:round;stroke-miterlimit:2;"><path d="M318.473,8.326l-13.011,16.488l-2.351,-10.458l10.077,-12.771c0.141,-0.154 0.271,-0.317 0.423,-0.46c0.459,-0.429 1.014,-0.751 1.611,-0.936c0.533,-0.166 0.681,-0.146 1.233,-0.188l17.379,0c0.525,0.038 0.664,0.02 1.173,0.169c1.33,0.391 2.429,1.485 2.821,2.822c0.149,0.508 0.131,0.647 0.169,1.172l0,34.936l1.917,0l0.592,0.042c0.515,0.112 0.655,0.114 1.137,0.334c1.083,0.494 1.93,1.471 2.266,2.613c0.149,0.509 0.13,0.648 0.167,1.173l0,10.935c-0.037,0.524 -0.018,0.663 -0.167,1.172c-0.393,1.334 -1.491,2.431 -2.822,2.821c-0.508,0.15 -0.648,0.131 -1.173,0.169l-21.081,-0c-0.526,-0.038 -0.665,-0.019 -1.173,-0.169c-1.332,-0.391 -2.429,-1.485 -2.821,-2.821c-0.15,-0.509 -0.131,-0.648 -0.169,-1.172l0,-10.171l8.325,-10.407l0,16.415l12.757,-0l0,-2.61l-1.918,0c-0.524,-0.037 -0.663,-0.019 -1.172,-0.168c-1.332,-0.391 -2.429,-1.485 -2.821,-2.821c-0.15,-0.508 -0.131,-0.649 -0.169,-1.173l0,-34.936l-11.199,0Z" style="fill:#0052ff;"/><path d="M322.995,11.052l0,13.328l-17.183,21.482l-0.423,0.455c-0.162,0.129 -0.315,0.27 -0.486,0.386c-0.515,0.351 -1.109,0.583 -1.722,0.675c-0.204,0.031 -0.413,0.031 -0.62,0.046l-17.679,0c-0.561,-0.043 -0.71,-0.022 -1.251,-0.192c-1.013,-0.319 -1.886,-1.035 -2.397,-1.965c-0.273,-0.496 -0.282,-0.647 -0.434,-1.188l-0.296,-1.483l6.259,-11.15l1.531,7.654l12.267,0l22.434,-28.048Z" style="fill:#0052ff;"/><path d="M247.4,47.425l-1.817,2.609l14.495,-0l22.022,-39.227l2.679,12.233l-18.634,33.195l-0.348,0.523c-0.375,0.412 -0.45,0.541 -0.913,0.86c-0.519,0.361 -1.12,0.599 -1.741,0.693c-0.206,0.032 -0.417,0.032 -0.627,0.048l-24.9,-0c-0.808,-0.059 -1.609,-0.239 -2.284,-0.683c-1.676,-1.102 -2.36,-3.494 -1.44,-5.337c0.09,-0.181 0.205,-0.347 0.307,-0.521l7.61,-10.934c0.36,-0.449 0.751,-0.871 1.24,-1.17c0.325,-0.199 0.677,-0.354 1.045,-0.458c0.185,-0.053 0.319,-0.083 0.442,-0.102l13.942,-0l-3.567,6.188c-0.117,0.17 -0.222,0.351 -0.352,0.514c-0.518,0.651 -1.232,1.138 -2.027,1.383c-0.531,0.165 -0.678,0.144 -1.228,0.185l-3.904,0Zm13.762,-12.924l-42.868,-0c-0.94,-0.115 -1.837,-0.607 -2.176,-1.502c-0.47,-1.237 0.331,-2.769 1.619,-3.087c0.181,-0.044 0.371,-0.044 0.557,-0.067l35.943,0l2.177,-3.776l9.61,0l-4.862,8.432Zm15.091,-26.174l-43.99,0c-0.939,-0.114 -1.836,-0.605 -2.177,-1.502c-0.468,-1.237 0.332,-2.768 1.62,-3.085c0.182,-0.045 0.372,-0.045 0.557,-0.068l37.064,0l0.915,-1.586l0.351,-0.515c0.375,-0.404 0.45,-0.531 0.91,-0.845c0.512,-0.35 1.107,-0.584 1.725,-0.677c0.204,-0.031 0.414,-0.031 0.621,-0.047l16.754,0c0.207,0.016 0.414,0.032 0.622,0.047c0.538,0.123 0.686,0.125 1.187,0.367c0.752,0.363 1.386,0.953 1.801,1.677c0.277,0.483 0.29,0.63 0.451,1.159l6.145,27.329l-2.392,3.004l-5.465,-0l-5.68,-25.258l-11.019,0l-0,0Zm-7.546,13.086l-43.098,0c-1.116,-0.135 -2.167,-0.871 -2.311,-2.046c-0.137,-1.128 0.654,-2.269 1.754,-2.541c0.182,-0.044 0.37,-0.044 0.557,-0.067l36.172,0l2.179,-3.776l9.61,0l-4.863,8.43Z" style="fill:#f00;"/><path d="M33.324,-0l-19.213,34.158l7.329,-0l7.696,-14.324l2.426,14.947l13.287,-14.947l-2.713,14.324l7.33,-0l5.607,-34.158l-18.133,19.977l-3.616,-19.977Z" style="fill:#f00;fill-rule:nonzero;"/><path d="M73.448,27.882l0.307,6.276l7.617,-0l-2.632,-34.158l-27.454,34.158l7.618,-0l4.963,-6.276l9.581,0Zm-0.111,-6.42l-4.695,0l4.406,-5.796l0.289,5.796Z" style="fill:#f00;fill-rule:nonzero;"/><path d="M117.137,12.983c2.472,-6.803 -1.067,-12.36 -7.917,-12.36l-12.408,-0l-12.184,33.535l7.186,0l3.29,-9.055l4.407,0c3.641,0 4.975,2.923 3.687,6.468l-0.94,2.587l7.186,0l0.94,-2.587c1.27,-3.497 1.674,-6.851 -1.114,-9.725c3.139,-1.917 6.231,-4.36 7.867,-8.863Zm-7.33,-0c-1.131,3.114 -4.658,5.701 -7.82,5.701l-4.551,-0l4.16,-11.45l4.551,0c3.162,0 4.809,2.587 3.66,5.749Z" style="fill:#f00;fill-rule:nonzero;"/><path d="M134.037,0.623l-7.186,-0l-12.184,33.535l7.186,0l12.184,-33.535Z" style="fill:#f00;fill-rule:nonzero;"/><path d="M132.287,17.438c-3.481,9.582 1.364,17.343 10.898,17.343c9.534,-0 19.97,-7.761 23.452,-17.343c3.498,-9.629 -1.347,-17.39 -10.881,-17.39c-9.534,-0 -19.97,7.761 -23.469,17.39Zm7.521,0c2.054,-5.653 8.072,-10.348 13.389,-10.348c5.27,0 7.972,4.695 5.918,10.348c-2.054,5.653 -8.102,10.3 -13.371,10.3c-5.318,0 -7.989,-4.647 -5.936,-10.3Z" style="fill:#f00;fill-rule:nonzero;"/><path d="M164.923,34.158l19.833,0l2.437,-6.707l-12.648,0l9.748,-26.828l-7.187,-0l-12.183,33.535Z" style="fill:#f00;fill-rule:nonzero;"/><path d="M200.534,0.623l-7.953,-0l3.264,19.498l-5.1,14.037l7.186,0l5.1,-14.037l17.432,-19.498l-7.953,-0l-10.444,12.264l-1.532,-12.264Z" style="fill:#f00;fill-rule:nonzero;"/><g><path d="M6.757,59c-1.956,-0 -3.197,-0.591 -3.722,-1.774c0.228,-0.292 0.53,-0.503 0.906,-0.635c0.395,1.066 1.491,1.599 3.287,1.599c1.233,-0 2.36,-0.294 3.38,-0.882c1.02,-0.587 1.819,-1.377 2.395,-2.37c0.526,-0.905 0.636,-1.606 0.329,-2.102c-0.306,-0.496 -1.053,-0.916 -2.241,-1.259c-0.432,-0.124 -0.792,-0.245 -1.082,-0.362c-0.29,-0.116 -0.576,-0.281 -0.858,-0.492c-0.282,-0.212 -0.471,-0.449 -0.566,-0.712c-0.096,-0.263 -0.109,-0.595 -0.04,-0.996c0.069,-0.402 0.252,-0.858 0.548,-1.369c0.607,-1.044 1.507,-1.909 2.701,-2.595c1.194,-0.686 2.456,-1.029 3.784,-1.029c1.81,0 2.97,0.486 3.479,1.456c-0.267,0.321 -0.556,0.537 -0.868,0.646c-0.25,-0.423 -0.612,-0.746 -1.085,-0.969c-0.473,-0.222 -1.136,-0.334 -1.99,-0.334c-1.095,0 -2.11,0.26 -3.047,0.778c-0.936,0.518 -1.645,1.193 -2.129,2.025c-0.267,0.46 -0.413,0.862 -0.437,1.205c-0.024,0.343 0.075,0.631 0.297,0.865c0.222,0.233 0.49,0.423 0.803,0.569c0.313,0.146 0.722,0.292 1.229,0.438c0.631,0.182 1.144,0.387 1.538,0.613c0.394,0.226 0.696,0.504 0.907,0.832c0.21,0.329 0.281,0.723 0.211,1.183c-0.07,0.459 -0.279,0.989 -0.627,1.587c-0.721,1.241 -1.718,2.232 -2.991,2.973c-1.274,0.741 -2.644,1.111 -4.111,1.111Z" style="fill:#0052ff;fill-rule:nonzero;"/><path d="M24.257,57.938c-0.049,0.197 -0.09,0.325 -0.124,0.383c-0.043,0.073 -0.154,0.208 -0.334,0.405l-8.693,0l8.363,-14.397l8.409,-0c-0.02,0.109 -0.076,0.244 -0.17,0.405c-0.085,0.146 -0.181,0.274 -0.288,0.383l-7.577,0l-3.32,5.715l6.854,0c-0.048,0.197 -0.094,0.332 -0.136,0.405c-0.034,0.059 -0.141,0.186 -0.322,0.384l-6.854,-0l-3.669,6.317l7.861,-0Z" style="fill:#0052ff;fill-rule:nonzero;"/><path d="M36.117,52.562l0.375,6.12c-0.209,0.059 -0.46,0.088 -0.752,0.088c-0.116,0 -0.193,-0.007 -0.228,-0.022l-0.404,-6.033c-0.353,0.03 -0.628,0.044 -0.825,0.044c-1.241,0 -2.161,-0.036 -2.761,-0.109l-3.53,6.076c-0.157,0.044 -0.312,0.066 -0.465,0.066c-0.153,-0 -0.283,-0.022 -0.389,-0.066l8.23,-14.167c1.329,-0.314 2.705,-0.471 4.128,-0.471c1.606,-0 2.628,0.37 3.066,1.111c0.438,0.741 0.302,1.754 -0.407,3.038c-0.675,1.124 -1.54,2.061 -2.595,2.809c-1.055,0.748 -2.203,1.253 -3.443,1.516Zm-4.124,-0.722c0.681,0.109 1.59,0.164 2.729,0.164c1.445,-0 2.724,-0.336 3.837,-1.008c1.113,-0.671 2.022,-1.583 2.729,-2.737c0.561,-1.029 0.662,-1.852 0.301,-2.469c-0.361,-0.616 -1.216,-0.925 -2.567,-0.925c-1.022,0 -2.071,0.099 -3.149,0.296l-3.88,6.679Z" style="fill:#0052ff;fill-rule:nonzero;"/><path d="M57.921,44.241c0.183,0 0.326,0.037 0.429,0.11c-3.893,4.766 -8.527,9.565 -13.904,14.397c-0.135,0.044 -0.297,0.066 -0.487,0.066c-0.182,-0 -0.326,-0.022 -0.432,-0.066c0.017,-2.241 0.263,-4.522 0.739,-6.843c0.477,-2.321 1.135,-4.839 1.975,-7.554c0.188,-0.073 0.381,-0.11 0.578,-0.11c0.146,0 0.261,0.022 0.345,0.066c-1.65,5.153 -2.554,9.719 -2.712,13.697c5.283,-4.898 9.632,-9.464 13.048,-13.697c0.135,-0.044 0.275,-0.066 0.421,-0.066Z" style="fill:#0052ff;fill-rule:nonzero;"/><path d="M53.322,58.792c-0.175,-0 -0.305,-0.022 -0.389,-0.066l8.364,-14.397c0.135,-0.044 0.29,-0.066 0.465,-0.066c0.161,0 0.283,0.022 0.367,0.066l-8.364,14.397c-0.134,0.044 -0.282,0.066 -0.443,0.066Z" style="fill:#0052ff;fill-rule:nonzero;"/><path d="M63.953,59c-1.365,-0 -2.378,-0.323 -3.039,-0.969c-0.661,-0.646 -0.936,-1.533 -0.825,-2.661c0.111,-1.127 0.582,-2.406 1.414,-3.837c0.843,-1.453 1.886,-2.748 3.128,-3.887c1.242,-1.139 2.575,-2.027 4.001,-2.666c1.426,-0.639 2.814,-0.958 4.164,-0.958c1.672,0 2.836,0.453 3.493,1.358c-0.225,0.299 -0.51,0.518 -0.853,0.657c-0.357,-0.416 -0.766,-0.727 -1.227,-0.931c-0.462,-0.204 -1.083,-0.307 -1.864,-0.307c-1.197,0 -2.422,0.287 -3.675,0.86c-1.252,0.573 -2.424,1.369 -3.516,2.387c-1.091,1.018 -2.017,2.18 -2.776,3.487c-1.149,1.978 -1.542,3.582 -1.18,4.812c0.362,1.23 1.437,1.845 3.226,1.845c1.693,-0 3.349,-0.456 4.966,-1.369c0.196,0.102 0.221,0.318 0.074,0.646c-1.835,1.022 -3.672,1.533 -5.511,1.533Z" style="fill:#0052ff;fill-rule:nonzero;"/><path d="M72.143,58.792c-0.175,-0 -0.305,-0.022 -0.389,-0.066l8.364,-14.397c0.135,-0.044 0.29,-0.066 0.465,-0.066c0.161,0 0.283,0.022 0.367,0.066l-8.364,14.397c-0.135,0.044 -0.282,0.066 -0.443,0.066Z" style="fill:#0052ff;fill-rule:nonzero;"/><path d="M86.995,57.982c-1.433,0.664 -2.829,0.996 -4.186,0.996c-1.358,0 -2.368,-0.325 -3.031,-0.974c-0.663,-0.65 -0.942,-1.539 -0.838,-2.666c0.104,-1.128 0.569,-2.404 1.396,-3.827c0.814,-1.401 1.825,-2.668 3.034,-3.799c1.208,-1.132 2.527,-2.029 3.957,-2.694c1.429,-0.664 2.819,-0.996 4.17,-0.996c1.365,0 2.381,0.323 3.05,0.969c0.668,0.646 0.951,1.535 0.849,2.666c-0.103,1.131 -0.571,2.416 -1.407,3.854c-0.81,1.394 -1.82,2.655 -3.029,3.783c-1.21,1.128 -2.532,2.024 -3.965,2.688Zm-3.729,0.208c1.219,-0 2.451,-0.289 3.694,-0.865c1.244,-0.577 2.393,-1.367 3.447,-2.371c1.054,-1.003 1.956,-2.151 2.706,-3.443c1.162,-2 1.566,-3.618 1.212,-4.856c-0.355,-1.237 -1.448,-1.856 -3.28,-1.856c-1.825,0 -3.629,0.619 -5.414,1.856c-1.784,1.238 -3.257,2.856 -4.419,4.856c-1.145,1.971 -1.543,3.577 -1.195,4.818c0.349,1.24 1.432,1.861 3.249,1.861Z" style="fill:#0052ff;fill-rule:nonzero;"/><path d="M96.69,59c-1.956,-0 -3.197,-0.591 -3.722,-1.774c0.228,-0.292 0.53,-0.503 0.906,-0.635c0.395,1.066 1.491,1.599 3.286,1.599c1.234,-0 2.361,-0.294 3.381,-0.882c1.02,-0.587 1.819,-1.377 2.395,-2.37c0.526,-0.905 0.636,-1.606 0.329,-2.102c-0.306,-0.496 -1.054,-0.916 -2.241,-1.259c-0.432,-0.124 -0.792,-0.245 -1.082,-0.362c-0.29,-0.116 -0.576,-0.281 -0.858,-0.492c-0.282,-0.212 -0.471,-0.449 -0.567,-0.712c-0.095,-0.263 -0.108,-0.595 -0.039,-0.996c0.069,-0.402 0.252,-0.858 0.548,-1.369c0.607,-1.044 1.507,-1.909 2.701,-2.595c1.194,-0.686 2.456,-1.029 3.784,-1.029c1.81,0 2.97,0.486 3.479,1.456c-0.267,0.321 -0.556,0.537 -0.868,0.646c-0.25,-0.423 -0.612,-0.746 -1.085,-0.969c-0.473,-0.222 -1.136,-0.334 -1.99,-0.334c-1.095,0 -2.111,0.26 -3.047,0.778c-0.936,0.518 -1.645,1.193 -2.129,2.025c-0.267,0.46 -0.413,0.862 -0.437,1.205c-0.024,0.343 0.075,0.631 0.297,0.865c0.222,0.233 0.49,0.423 0.803,0.569c0.313,0.146 0.722,0.292 1.229,0.438c0.631,0.182 1.144,0.387 1.538,0.613c0.394,0.226 0.696,0.504 0.907,0.832c0.21,0.329 0.281,0.723 0.211,1.183c-0.07,0.459 -0.279,0.989 -0.627,1.587c-0.721,1.241 -1.718,2.232 -2.991,2.973c-1.274,0.741 -2.644,1.111 -4.111,1.111Z" style="fill:#0052ff;fill-rule:nonzero;"/><path d="M127.844,44.329c-0.033,0.131 -0.085,0.259 -0.157,0.383c-0.072,0.124 -0.169,0.252 -0.289,0.383l-5.156,0l-7.919,13.631c-0.157,0.044 -0.312,0.066 -0.465,0.066c-0.139,-0 -0.261,-0.022 -0.367,-0.066l7.918,-13.631l-5.135,0c0.033,-0.131 0.085,-0.259 0.157,-0.383c0.072,-0.124 0.169,-0.252 0.289,-0.383l11.124,-0Z" style="fill:#0052ff;fill-rule:nonzero;"/><path d="M127.401,59c-1.672,-0 -2.707,-0.533 -3.106,-1.599c-0.399,-1.065 -0.079,-2.492 0.959,-4.28l5.108,-8.792c0.135,-0.044 0.29,-0.066 0.465,-0.066c0.153,0 0.283,0.022 0.389,0.066l-5.108,8.792c-0.873,1.503 -1.162,2.72 -0.867,3.651c0.295,0.931 1.176,1.396 2.643,1.396c1.394,-0 2.758,-0.465 4.09,-1.396c1.333,-0.931 2.436,-2.148 3.31,-3.651l5.107,-8.792c0.157,-0.044 0.312,-0.066 0.465,-0.066c0.161,0 0.283,0.022 0.367,0.066l-5.107,8.792c-1.01,1.737 -2.313,3.151 -3.91,4.242c-1.598,1.091 -3.199,1.637 -4.805,1.637Z" style="fill:#0052ff;fill-rule:nonzero;"/><path d="M146.162,52.562l0.376,6.12c-0.209,0.059 -0.46,0.088 -0.752,0.088c-0.117,0 -0.193,-0.007 -0.228,-0.022l-0.404,-6.033c-0.353,0.03 -0.628,0.044 -0.825,0.044c-1.241,0 -2.161,-0.036 -2.761,-0.109l-3.53,6.076c-0.157,0.044 -0.312,0.066 -0.465,0.066c-0.154,-0 -0.283,-0.022 -0.389,-0.066l8.23,-14.167c1.328,-0.314 2.704,-0.471 4.128,-0.471c1.605,-0 2.627,0.37 3.066,1.111c0.438,0.741 0.302,1.754 -0.408,3.038c-0.675,1.124 -1.54,2.061 -2.595,2.809c-1.055,0.748 -2.202,1.253 -3.443,1.516Zm-4.123,-0.722c0.68,0.109 1.59,0.164 2.729,0.164c1.445,-0 2.724,-0.336 3.837,-1.008c1.113,-0.671 2.022,-1.583 2.729,-2.737c0.561,-1.029 0.661,-1.852 0.301,-2.469c-0.361,-0.616 -1.217,-0.925 -2.567,-0.925c-1.022,0 -2.072,0.099 -3.15,0.296l-3.879,6.679Z" style="fill:#0052ff;fill-rule:nonzero;"/><path d="M150.186,58.792c-0.176,-0 -0.305,-0.022 -0.389,-0.066l8.364,-14.397c0.135,-0.044 0.29,-0.066 0.465,-0.066c0.16,0 0.283,0.022 0.367,0.066l-8.364,14.397c-0.135,0.044 -0.283,0.066 -0.443,0.066Z" style="fill:#0052ff;fill-rule:nonzero;"/><path d="M158.484,59c-1.956,-0 -3.196,-0.591 -3.721,-1.774c0.228,-0.292 0.53,-0.503 0.905,-0.635c0.396,1.066 1.491,1.599 3.287,1.599c1.234,-0 2.36,-0.294 3.381,-0.882c1.02,-0.587 1.818,-1.377 2.395,-2.37c0.526,-0.905 0.635,-1.606 0.329,-2.102c-0.307,-0.496 -1.054,-0.916 -2.241,-1.259c-0.432,-0.124 -0.793,-0.245 -1.082,-0.362c-0.29,-0.116 -0.576,-0.281 -0.858,-0.492c-0.283,-0.212 -0.471,-0.449 -0.567,-0.712c-0.095,-0.263 -0.109,-0.595 -0.04,-0.996c0.069,-0.402 0.252,-0.858 0.549,-1.369c0.606,-1.044 1.507,-1.909 2.701,-2.595c1.194,-0.686 2.455,-1.029 3.784,-1.029c1.81,0 2.97,0.486 3.479,1.456c-0.267,0.321 -0.557,0.537 -0.868,0.646c-0.251,-0.423 -0.612,-0.746 -1.085,-0.969c-0.473,-0.222 -1.137,-0.334 -1.991,-0.334c-1.094,0 -2.11,0.26 -3.046,0.778c-0.936,0.518 -1.646,1.193 -2.129,2.025c-0.267,0.46 -0.413,0.862 -0.437,1.205c-0.024,0.343 0.075,0.631 0.297,0.865c0.222,0.233 0.489,0.423 0.802,0.569c0.313,0.146 0.723,0.292 1.229,0.438c0.632,0.182 1.144,0.387 1.538,0.613c0.394,0.226 0.697,0.504 0.907,0.832c0.211,0.329 0.281,0.723 0.211,1.183c-0.07,0.459 -0.279,0.989 -0.626,1.587c-0.721,1.241 -1.718,2.232 -2.992,2.973c-1.273,0.741 -2.643,1.111 -4.111,1.111Z" style="fill:#0052ff;fill-rule:nonzero;"/><path d="M184.328,44.329c-0.032,0.131 -0.085,0.259 -0.157,0.383c-0.072,0.124 -0.168,0.252 -0.288,0.383l-5.157,0l-7.919,13.631c-0.156,0.044 -0.311,0.066 -0.465,0.066c-0.138,-0 -0.261,-0.022 -0.367,-0.066l7.919,-13.631l-5.135,0c0.032,-0.131 0.085,-0.259 0.157,-0.383c0.072,-0.124 0.168,-0.252 0.288,-0.383l11.124,-0Z" style="fill:#0052ff;fill-rule:nonzero;"/><path d="M179.057,58.792c-0.175,-0 -0.304,-0.022 -0.388,-0.066l8.363,-14.397c0.135,-0.044 0.29,-0.066 0.466,-0.066c0.16,0 0.282,0.022 0.367,0.066l-8.364,14.397c-0.135,0.044 -0.283,0.066 -0.444,0.066Z" style="fill:#0052ff;fill-rule:nonzero;"/><path d="M189.688,59c-1.365,-0 -2.378,-0.323 -3.039,-0.969c-0.661,-0.646 -0.936,-1.533 -0.825,-2.661c0.112,-1.127 0.583,-2.406 1.414,-3.837c0.844,-1.453 1.886,-2.748 3.128,-3.887c1.242,-1.139 2.576,-2.027 4.001,-2.666c1.426,-0.639 2.814,-0.958 4.165,-0.958c1.671,0 2.835,0.453 3.492,1.358c-0.225,0.299 -0.509,0.518 -0.853,0.657c-0.356,-0.416 -0.766,-0.727 -1.227,-0.931c-0.462,-0.204 -1.083,-0.307 -1.864,-0.307c-1.197,0 -2.422,0.287 -3.674,0.86c-1.253,0.573 -2.425,1.369 -3.517,2.387c-1.091,1.018 -2.016,2.18 -2.775,3.487c-1.149,1.978 -1.543,3.582 -1.181,4.812c0.362,1.23 1.438,1.845 3.226,1.845c1.693,-0 3.349,-0.456 4.966,-1.369c0.197,0.102 0.221,0.318 0.074,0.646c-1.834,1.022 -3.671,1.533 -5.511,1.533Z" style="fill:#0052ff;fill-rule:nonzero;"/><path d="M207.081,57.982c-1.434,0.664 -2.829,0.996 -4.187,0.996c-1.357,0 -2.368,-0.325 -3.03,-0.974c-0.663,-0.65 -0.942,-1.539 -0.838,-2.666c0.104,-1.128 0.569,-2.404 1.396,-3.827c0.814,-1.401 1.825,-2.668 3.033,-3.799c1.209,-1.132 2.528,-2.029 3.957,-2.694c1.43,-0.664 2.82,-0.996 4.17,-0.996c1.365,0 2.382,0.323 3.051,0.969c0.668,0.646 0.951,1.535 0.849,2.666c-0.103,1.131 -0.572,2.416 -1.407,3.854c-0.81,1.394 -1.82,2.655 -3.03,3.783c-1.21,1.128 -2.531,2.024 -3.964,2.688Zm-3.729,0.208c1.219,-0 2.45,-0.289 3.694,-0.865c1.244,-0.577 2.393,-1.367 3.446,-2.371c1.054,-1.003 1.956,-2.151 2.707,-3.443c1.162,-2 1.566,-3.618 1.211,-4.856c-0.354,-1.237 -1.447,-1.856 -3.279,-1.856c-1.825,0 -3.63,0.619 -5.414,1.856c-1.784,1.238 -3.257,2.856 -4.419,4.856c-1.145,1.971 -1.543,3.577 -1.195,4.818c0.349,1.24 1.432,1.861 3.249,1.861Z" style="fill:#0052ff;fill-rule:nonzero;"/><path d="M216.775,59c-1.956,-0 -3.196,-0.591 -3.721,-1.774c0.228,-0.292 0.53,-0.503 0.905,-0.635c0.396,1.066 1.492,1.599 3.287,1.599c1.234,-0 2.361,-0.294 3.381,-0.882c1.02,-0.587 1.818,-1.377 2.395,-2.37c0.526,-0.905 0.635,-1.606 0.329,-2.102c-0.307,-0.496 -1.054,-0.916 -2.241,-1.259c-0.432,-0.124 -0.793,-0.245 -1.082,-0.362c-0.29,-0.116 -0.576,-0.281 -0.858,-0.492c-0.282,-0.212 -0.471,-0.449 -0.567,-0.712c-0.095,-0.263 -0.109,-0.595 -0.04,-0.996c0.069,-0.402 0.252,-0.858 0.549,-1.369c0.606,-1.044 1.507,-1.909 2.701,-2.595c1.194,-0.686 2.455,-1.029 3.784,-1.029c1.81,0 2.97,0.486 3.479,1.456c-0.267,0.321 -0.557,0.537 -0.868,0.646c-0.251,-0.423 -0.612,-0.746 -1.085,-0.969c-0.473,-0.222 -1.137,-0.334 -1.991,-0.334c-1.094,0 -2.11,0.26 -3.046,0.778c-0.936,0.518 -1.646,1.193 -2.129,2.025c-0.267,0.46 -0.413,0.862 -0.437,1.205c-0.024,0.343 0.075,0.631 0.297,0.865c0.222,0.233 0.489,0.423 0.802,0.569c0.313,0.146 0.723,0.292 1.229,0.438c0.632,0.182 1.144,0.387 1.538,0.613c0.394,0.226 0.697,0.504 0.907,0.832c0.211,0.329 0.281,0.723 0.211,1.183c-0.07,0.459 -0.279,0.989 -0.626,1.587c-0.721,1.241 -1.718,2.232 -2.992,2.973c-1.273,0.741 -2.643,1.111 -4.111,1.111Z" style="fill:#0052ff;fill-rule:nonzero;"/></g></svg>