<svg width="47" height="47" viewBox="0 0 47 47" fill="none" xmlns="http://www.w3.org/2000/svg">
<path d="M39.9605 6.82969C35.5647 2.42344 29.7107 0 23.4895 0C10.6484 0 0.19933 10.4491 0.19933 23.2902C0.19933 27.3922 1.26942 31.3998 3.30469 34.9353L0 47L12.348 43.7583C15.7471 45.6152 19.5763 46.5909 23.479 46.5909H23.4895C36.3201 46.5909 47 36.1417 47 23.3007C47 17.0795 44.3563 11.2359 39.9605 6.82969ZM23.4895 42.6672C20.0065 42.6672 16.5969 41.7335 13.6279 39.971L12.925 39.5513L5.60223 41.4712L7.55357 34.3268L7.09196 33.5924C5.15112 30.508 4.13348 26.9516 4.13348 23.2902C4.13348 12.6208 12.8201 3.93415 23.5 3.93415C28.6721 3.93415 33.5295 5.94844 37.1804 9.60982C40.8312 13.2712 43.0763 18.1286 43.0658 23.3007C43.0658 33.9806 34.1589 42.6672 23.4895 42.6672ZM34.1065 28.1685C33.5295 27.8748 30.6654 26.469 30.1304 26.2801C29.5953 26.0808 29.2071 25.9864 28.819 26.5739C28.4308 27.1614 27.3188 28.4623 26.9725 28.8609C26.6368 29.2491 26.2906 29.3016 25.7136 29.0078C22.2935 27.2978 20.0484 25.9549 17.7929 22.0837C17.1949 21.0556 18.3908 21.129 19.5029 18.9049C19.6917 18.5167 19.5973 18.181 19.4504 17.8873C19.3036 17.5935 18.1391 14.7295 17.6565 13.565C17.1844 12.4319 16.7018 12.5893 16.3451 12.5683C16.0094 12.5473 15.6212 12.5473 15.233 12.5473C14.8449 12.5473 14.2154 12.6942 13.6804 13.2712C13.1453 13.8587 11.6451 15.2645 11.6451 18.1286C11.6451 20.9926 13.7328 23.7623 14.0161 24.1504C14.3098 24.5386 18.1181 30.4136 23.9616 32.942C27.6545 34.5366 29.1022 34.673 30.9487 34.4002C32.0712 34.2324 34.3897 32.9944 34.8723 31.6306C35.3549 30.2667 35.3549 29.1022 35.208 28.8609C35.0717 28.5987 34.6835 28.4518 34.1065 28.1685Z" fill="#0052FF"/>
</svg>
